<?xml version="1.0" encoding="UTF-8" standalone="no"?>
<svg
   xmlns:dc="http://purl.org/dc/elements/1.1/"
   xmlns:cc="http://creativecommons.org/ns#"
   xmlns:rdf="http://www.w3.org/1999/02/22-rdf-syntax-ns#"
   xmlns:svg="http://www.w3.org/2000/svg"
   xmlns="http://www.w3.org/2000/svg"
   version="1.1"
   id="svg2"
   viewBox="0 0 32.000001 32.000001"
   height="32"
   width="32">
  <defs
     id="defs4" />
  <metadata
     id="metadata7">
    <rdf:RDF>
      <cc:Work
         rdf:about="">
        <dc:format>image/svg+xml</dc:format>
        <dc:type
           rdf:resource="http://purl.org/dc/dcmitype/StillImage" />
        <dc:title></dc:title>
      </cc:Work>
    </rdf:RDF>
  </metadata>
  <g
     transform="translate(242.59332,-488.51343)"
     id="layer1">
    <g
       id="g4359">
      <circle
         style="opacity:1;fill:#0187fa;fill-opacity:1;stroke:none"
         id="path4135"
         cx="-226.59332"
         cy="504.51343"
         r="16" />
      <path
         style="fill:#ffffff"
         d="m -227.86618,513.019 c -0.47849,-0.0934 -1.24552,-0.2354 -1.70451,-0.31567 -1.5751,-0.27541 -2.11533,-0.50952 -2.83366,-1.22793 -0.48673,-0.48679 -0.68731,-0.80551 -0.96092,-1.52693 -0.1473,-0.38838 -0.15335,-0.54112 -0.17568,-4.43631 -0.0256,-4.45891 -0.0174,-4.56333 0.42732,-5.44427 0.32592,-0.64562 1.06555,-1.36254 1.73838,-1.68499 0.2929,-0.14037 0.5824,-0.25524 0.64333,-0.25529 0.0609,-4e-5 0.206,-0.17131 0.32236,-0.38062 0.48758,-0.877 1.53047,-1.65326 2.50871,-1.86732 0.7278,-0.15927 2.21528,0.0222 5.07284,0.61894 1.53464,0.32047 2.67814,1.38915 3.05247,2.85277 0.10699,0.41835 0.13797,0.79618 0.13797,1.68285 l 0,1.14339 -0.53324,0.45812 c -0.2933,0.25195 -0.59628,0.50704 -0.67331,0.56686 -0.077,0.0598 -0.43247,0.35525 -0.78986,0.65653 -0.91678,0.77286 -1.14993,0.93844 -1.32132,0.93844 -0.51199,0 -0.5972,-0.23701 -0.5972,-1.66115 0,-1.35048 -0.0956,-1.71937 -0.60957,-2.35119 -0.45936,-0.56476 -0.98695,-0.79749 -2.32663,-1.02637 -1.44959,-0.24765 -1.89093,-0.32509 -2.3054,-0.40451 -0.19137,-0.0367 -0.46158,-0.0667 -0.60046,-0.0667 l -0.25252,0 0.0205,4.00556 c 0.0201,3.9407 0.023,4.0111 0.17846,4.34756 0.21643,0.46848 0.76342,1.03336 1.21045,1.25006 0.21125,0.10239 0.79376,0.25902 1.35025,0.36305 0.53831,0.10064 1.32185,0.24719 1.7412,0.32567 0.41935,0.0785 0.9495,0.16467 1.1781,0.19154 l 0.41565,0.0488 0,-1.37663 c 0,-0.79632 0.0329,-1.47106 0.0781,-1.60061 0.0429,-0.12317 0.19791,-0.31406 0.34437,-0.42418 0.14646,-0.11013 0.64148,-0.51285 1.10003,-0.89494 0.45856,-0.38208 0.98649,-0.81806 1.17319,-0.96882 0.42837,-0.34589 0.70458,-0.36816 1.00434,-0.081 l 0.21493,0.20592 0,1.46106 c 0,1.65338 -0.0946,2.19858 -0.51426,2.96486 -0.42685,0.77938 -1.38785,1.57584 -2.14325,1.7763 -0.24484,0.0649 -0.33048,0.13595 -0.45706,0.37878 -0.41221,0.79086 -1.26404,1.49362 -2.15235,1.77572 -0.71413,0.22678 -1.74099,0.22073 -2.96168,-0.0174 z m 2.87725,-1.29019 c 0.38304,-0.18121 0.84902,-0.58294 0.76899,-0.66296 -0.0223,-0.0223 -0.83557,-0.18678 -1.80718,-0.36541 -2.5309,-0.4653 -2.7546,-0.5403 -3.52579,-1.1821 -0.51718,-0.4304 -0.91654,-1.01234 -1.16984,-1.70467 l -0.18837,-0.51489 -0.0363,-3.87005 -0.0363,-3.87005 -0.32624,0.27221 c -0.3926,0.32756 -0.68014,0.74387 -0.85163,1.233 -0.11509,0.32823 -0.1271,0.73251 -0.1271,4.27742 l 0,3.91493 0.1749,0.435 c 0.12329,0.30661 0.30516,0.56524 0.61625,0.87633 0.50811,0.50811 0.88171,0.67637 1.89131,0.85176 0.35886,0.0624 1.19078,0.21142 1.84872,0.33128 0.65792,0.11985 1.31041,0.22752 1.44997,0.23925 0.40848,0.0343 0.89966,-0.0629 1.31852,-0.26105 z m 3.31358,-2.71246 c 0.5488,-0.56085 0.73524,-1.03909 0.77559,-1.98944 0.021,-0.49466 0.005,-0.70686 -0.0518,-0.70686 -0.045,0 -0.35504,0.23189 -0.68889,0.51533 l -0.607,0.51533 0,1.04339 c 0,0.71283 0.0253,1.04339 0.08,1.04339 0.044,0 0.26549,-0.18951 0.49213,-0.42114 z m 0.20719,-6.93235 0.59811,-0.48938 -4.3e-4,-0.62786 c -7.7e-4,-1.20299 -0.18279,-1.80763 -0.73177,-2.43132 -0.49825,-0.56603 -0.91623,-0.71351 -3.20025,-1.1292 -1.10617,-0.20132 -2.13385,-0.36565 -2.28372,-0.36517 -0.31014,7.7e-4 -0.91799,0.15008 -1.18206,0.28994 -0.28442,0.15065 -0.79589,0.59019 -0.75803,0.65144 0.0191,0.0308 0.18998,0.0775 0.37987,0.1038 0.1899,0.0263 0.6715,0.10871 1.07025,0.18316 0.39874,0.0745 1.10016,0.20527 1.55872,0.2907 1.10505,0.20588 1.42668,0.31618 1.97635,0.67775 1.02751,0.67589 1.63909,1.69929 1.76222,2.9488 0.0354,0.35933 0.0743,0.49216 0.13146,0.4486 0.0446,-0.034 0.3503,-0.28211 0.67927,-0.55126 z"
         id="path4355" />
    </g>
  </g>
</svg>
