<?xml version="1.0" encoding="UTF-8" standalone="no"?>
<svg
   xmlns:dc="http://purl.org/dc/elements/1.1/"
   xmlns:cc="http://creativecommons.org/ns#"
   xmlns:rdf="http://www.w3.org/1999/02/22-rdf-syntax-ns#"
   xmlns:svg="http://www.w3.org/2000/svg"
   xmlns="http://www.w3.org/2000/svg"
   version="1.1"
   id="svg2"
   viewBox="0 0 31.999999 31.999999"
   height="32px"
   width="32px">
  <defs
     id="defs4" />
  <metadata
     id="metadata7">
    <rdf:RDF>
      <cc:Work
         rdf:about="">
        <dc:format>image/svg+xml</dc:format>
        <dc:type
           rdf:resource="http://purl.org/dc/dcmitype/StillImage" />
        <dc:title></dc:title>
      </cc:Work>
    </rdf:RDF>
  </metadata>
  <g
     transform="translate(122.44485,-496.61566)"
     id="layer1">
    <g
       id="g4234">
      <circle
         style="opacity:1;fill:#454e72;fill-opacity:1;stroke:none"
         id="path4135"
         cx="-106.44485"
         cy="512.61566"
         r="16" />
      <path
         style="fill:#ffffff"
         d="m -107.69868,520.24636 c -0.5136,-0.10697 -0.58391,-0.1432 -0.58391,-0.30093 0,-0.13438 0.0806,-0.21099 0.3216,-0.30565 0.3678,-0.14447 0.46681,-0.3316 0.56399,-1.06592 0.15396,-1.16347 0.67715,-1.99271 2.39403,-3.79453 0.65153,-0.68376 1.42226,-1.5594 1.71273,-1.94588 0.52404,-0.69723 1.13623,-1.79763 1.41178,-2.53766 0.0789,-0.2119 0.18338,-0.37376 0.23216,-0.35968 0.13197,0.0381 0.58293,0.97908 0.81408,1.69873 0.57521,1.79077 0.56842,3.75757 -0.0178,5.16717 -0.71493,1.71898 -2.38049,3.10333 -4.2043,3.49447 -0.57258,0.1228 -1.93844,0.0969 -2.64433,-0.0502 z m -2.98143,-1.74976 c -0.59901,-0.64141 -1.10024,-1.5051 -1.35735,-2.3389 -0.11645,-0.37763 -0.1486,-0.73844 -0.14711,-1.65104 0.002,-1.06381 0.0216,-1.22441 0.2236,-1.80328 0.39654,-1.13678 0.91866,-1.87892 2.06292,-2.93218 1.95062,-1.7955 2.90408,-3.91914 2.90408,-6.46829 0,-0.74346 0.0239,-0.9576 0.1072,-0.9576 0.13337,0 1.1277,1.02872 1.51803,1.57051 0.69316,0.96218 1.1844,2.08795 1.44061,3.30141 0.1964,0.93021 0.19528,1.50663 -0.004,2.15242 -0.22184,0.71823 -0.75783,1.43495 -2.06795,2.76526 -0.61299,0.62244 -1.3594,1.47413 -1.65871,1.89266 -0.90445,1.26476 -1.94495,3.54353 -2.19536,4.80804 -0.0285,0.14396 -0.0997,0.26175 -0.15828,0.26175 -0.0586,0 -0.35893,-0.27034 -0.66751,-0.60076 z"
         id="path4226" />
    </g>
  </g>
</svg>
