<?xml version="1.0" encoding="UTF-8" standalone="no"?>
<svg
   xmlns:dc="http://purl.org/dc/elements/1.1/"
   xmlns:cc="http://creativecommons.org/ns#"
   xmlns:rdf="http://www.w3.org/1999/02/22-rdf-syntax-ns#"
   xmlns:svg="http://www.w3.org/2000/svg"
   xmlns="http://www.w3.org/2000/svg"
   version="1.1"
   id="svg2"
   viewBox="0 0 32.000001 32.000001"
   height="32px"
   width="32px">
  <defs
     id="defs4" />
  <metadata
     id="metadata7">
    <rdf:RDF>
      <cc:Work
         rdf:about="">
        <dc:format>image/svg+xml</dc:format>
        <dc:type
           rdf:resource="http://purl.org/dc/dcmitype/StillImage" />
        <dc:title></dc:title>
      </cc:Work>
    </rdf:RDF>
  </metadata>
  <g
     transform="translate(242.59332,-488.51343)"
     id="layer1">
    <g
       id="g4321">
      <circle
         style="opacity:1;fill:#4bc0c8;fill-opacity:1;stroke:none"
         id="path4135"
         cx="-226.59332"
         cy="504.51343"
         r="16" />
      <path
         style="fill:#ffffff"
         d="m -232.69895,511.62114 c -2.07962,-1.67927 -2.32748,-2.06867 -2.32346,-3.65023 0.004,-1.3384 0.24082,-1.87341 1.25221,-2.82183 l 0.76679,-0.71905 -0.62677,-0.48952 c -0.8721,-0.68111 -1.2978,-1.49652 -1.37018,-2.62449 -0.0661,-1.02983 0.1114,-1.76897 0.58025,-2.41617 0.30274,-0.41792 3.01248,-2.68069 3.37834,-2.82109 0.0851,-0.0326 2.31419,1.65963 4.95357,3.76064 l 4.79885,3.82001 0.7144,-0.56127 c 0.83072,-0.65265 1.20966,-1.29661 1.21298,-2.0613 0.004,-0.88006 -0.33485,-1.38179 -1.66053,-2.46001 l -1.19971,-0.97575 -1.20571,0.94405 c -0.66315,0.51922 -1.27686,0.94186 -1.36381,0.93919 -0.26017,-0.008 -0.99532,-0.69711 -0.86819,-0.81383 0.32711,-0.30035 3.2343,-2.55679 3.35412,-2.60332 0.0771,-0.03 0.66726,0.36439 1.31155,0.87629 2.48674,1.97574 2.82908,2.46397 2.83006,4.03612 8.3e-4,1.26046 -0.2919,1.91655 -1.26164,2.82807 l -0.72542,0.68187 0.77117,0.74893 c 1.00589,0.97687 1.20624,1.4866 1.14937,2.92426 -0.0593,1.50118 -0.31234,1.87724 -2.36705,3.51879 -0.88289,0.70538 -1.643,1.26874 -1.68914,1.25195 -0.0462,-0.0168 -1.97011,-1.53288 -4.27551,-3.36907 -2.3054,-1.83619 -4.45555,-3.54253 -4.7781,-3.79186 l -0.58647,-0.45332 -0.71625,0.55115 c -0.85172,0.65538 -1.18947,1.24474 -1.18947,2.07557 0,0.91726 0.28089,1.35179 1.51605,2.34524 0.60875,0.48964 1.17407,0.91605 1.25626,0.94759 0.0822,0.0316 0.70015,-0.37635 1.37325,-0.90643 l 1.22382,-0.96377 0.4802,0.38034 c 0.26413,0.20919 0.46445,0.4206 0.4452,0.4698 -0.0412,0.10522 -3.34385,2.74079 -3.43672,2.7426 -0.0347,7.1e-4 -0.81067,-0.60239 -1.72431,-1.34015 z m 11.74344,-1.26056 c 0.74266,-0.60239 1.21313,-1.08245 1.36625,-1.39405 0.28564,-0.58133 0.295,-1.52397 0.0204,-2.05503 -0.24974,-0.48295 -1.59282,-1.61289 -1.78254,-1.49966 -0.0773,0.0462 -0.87748,0.6673 -1.77805,1.38029 l -1.6374,1.29635 -0.47899,-0.38492 c -0.26344,-0.2117 -0.47839,-0.41618 -0.47768,-0.45438 7.1e-4,-0.0381 0.74995,-0.65967 1.66496,-1.38104 0.91501,-0.72136 1.66561,-1.34729 1.66797,-1.39097 0.003,-0.0437 -0.22373,-0.25808 -0.50244,-0.47646 -0.2787,-0.21838 -2.2125,-1.75408 -4.29731,-3.41265 l -3.79058,-3.01559 -1.21721,0.99006 c -1.34799,1.09641 -1.66206,1.56178 -1.66206,2.46269 0,0.7918 0.35749,1.41337 1.18826,2.06607 l 0.70568,0.55441 1.71972,-1.36089 c 0.94586,-0.74849 1.75103,-1.36178 1.78929,-1.36287 0.12298,-0.004 1.00574,0.80672 0.94392,0.86632 -0.0327,0.0316 -0.78396,0.63218 -1.66926,1.33459 -0.88531,0.70241 -1.62065,1.31235 -1.63408,1.35541 -0.0341,0.10903 8.43665,6.8166 8.59767,6.80805 0.0719,-0.004 0.64051,-0.42039 1.2635,-0.92573 z"
         id="path4319" />
    </g>
  </g>
</svg>
