<?xml version="1.0" encoding="UTF-8" standalone="no"?>
<svg
   xmlns:dc="http://purl.org/dc/elements/1.1/"
   xmlns:cc="http://creativecommons.org/ns#"
   xmlns:rdf="http://www.w3.org/1999/02/22-rdf-syntax-ns#"
   xmlns:svg="http://www.w3.org/2000/svg"
   xmlns="http://www.w3.org/2000/svg"
   width="9.0311108mm"
   height="9.0311108mm"
   viewBox="0 0 31.999999 31.999999"
   id="svg2"
   version="1.1">
  <defs
     id="defs4" />
  <metadata
     id="metadata7">
    <rdf:RDF>
      <cc:Work
         rdf:about="">
        <dc:format>image/svg+xml</dc:format>
        <dc:type
           rdf:resource="http://purl.org/dc/dcmitype/StillImage" />
        <dc:title></dc:title>
      </cc:Work>
    </rdf:RDF>
  </metadata>
  <circle
     r="16"
     cy="16"
     cx="16"
     id="path4135"
     style="opacity:1;fill:#269df4;fill-opacity:1;stroke:none" />
  <g
     style="fill:#ffffff"
     id="layer1"
     transform="matrix(0.50847505,0,0,0.50847505,200.41421,-270.67355)">
    <path
       style="fill:#ffffff;fill-opacity:1"
       d="m -378.63345,579.52728 c -0.0439,-0.14493 -0.0604,-7.32956 -0.0366,-15.96585 0.0396,-14.36694 0.0666,-15.70801 0.31788,-15.76899 0.32752,-0.0795 5.40754,2.74092 5.8539,3.25005 0.29609,0.33773 0.31082,0.93173 0.31082,12.53343 l 0,12.17891 -0.44251,0.43872 c -0.59852,0.59339 -5.32223,3.59724 -5.65684,3.59724 -0.14678,0 -0.30279,-0.1186 -0.34669,-0.26351 z m 28.72275,-1.40388 c -1.40841,-0.91479 -2.70674,-1.82978 -2.88516,-2.03328 -0.31389,-0.35804 -0.3244,-0.76409 -0.3244,-12.53156 0,-11.58479 0.0147,-12.17836 0.31082,-12.51607 0.44637,-0.50916 5.52638,-3.32953 5.85389,-3.25004 0.25178,0.0611 0.27463,1.39086 0.27463,15.97979 0,15.75573 -0.003,15.91365 -0.33451,15.96377 -0.18398,0.0279 -1.48685,-0.69783 -2.89527,-1.61261 z m -16.05662,-6.84262 c -1.59243,-1.18384 -2.96487,-2.29099 -3.04985,-2.46033 -0.085,-0.16934 -0.15567,-2.27104 -0.15708,-4.67042 -0.002,-4.23414 0.009,-4.37758 0.37376,-4.87427 0.40682,-0.55323 5.82086,-4.57115 6.15949,-4.57115 0.27095,0 5.64873,3.93877 6.13381,4.4925 0.36764,0.41966 0.37633,0.53239 0.37633,4.88492 0,3.23948 -0.0571,4.54961 -0.20907,4.80081 -0.34106,0.56355 -5.93133,4.58515 -6.34846,4.56704 -0.21097,-0.009 -1.68649,-0.98526 -3.27893,-2.1691 z"
       id="path4147" />
  </g>
</svg>
