<?xml version="1.0" standalone="no"?>
<!DOCTYPE svg PUBLIC "-//W3C//DTD SVG 20010904//EN"
 "http://www.w3.org/TR/2001/REC-SVG-20010904/DTD/svg10.dtd">
<svg version="1.0" xmlns="http://www.w3.org/2000/svg"
 width="323.000000pt" height="323.000000pt" viewBox="0 0 323.000000 323.000000"
 preserveAspectRatio="xMidYMid meet">
<metadata>
Created by potrace 1.11, written by Peter Selinger 2001-2013
</metadata>
<g transform="translate(0.000000,323.000000) scale(0.100000,-0.100000)"
fill="#000000" stroke="none">
<path d="M955 3169 c-362 -73 -643 -281 -824 -611 -32 -59 -95 -235 -106 -298
-21 -113 -23 -147 -20 -265 2 -71 6 -146 10 -165 33 -185 111 -367 217 -510
91 -122 252 -261 387 -333 269 -145 630 -175 925 -76 547 183 880 740 781
1307 -42 243 -147 445 -324 623 -165 166 -395 292 -591 324 -25 4 -54 10 -65
12 -11 3 -83 6 -160 8 -104 2 -163 -2 -230 -16z"/>
<path d="M2716 2573 c-57 -17 -140 -68 -177 -109 -76 -83 -109 -173 -106 -287
3 -68 8 -94 34 -150 84 -178 266 -265 463 -222 126 27 249 148 283 277 55 210
-50 410 -258 489 -48 18 -183 20 -239 2z"/>
<path d="M2450 1243 c-14 -2 -54 -14 -89 -25 -193 -62 -345 -223 -396 -418
-31 -116 -22 -269 21 -367 8 -17 14 -34 14 -37 0 -4 16 -32 35 -62 111 -173
285 -273 485 -280 255 -8 471 127 574 359 54 123 64 283 25 406 -64 199 -212
346 -409 406 -52 15 -206 26 -260 18z"/>
</g>
</svg>
